Black Label Society - Hangover Music Vol. VI - CD remaster by MC Lurken (a.k.a. Beavis39)



!!!!!!!!!!!!!THIS IS NOT AN OFFICIAL REMASTER, THIS IS A FAN RELEASE!!!!!!!!!!!!!!
!!!!!!!!!!!!!THIS IS NOT AN OFFICIAL REMASTER, THIS IS A FAN RELEASE!!!!!!!!!!!!!!



1 - Crazy Or High
2 - Queen Of Sorrow
3 - Steppin Stone
4 - Yesterday, Today, Tomorrow
5 - Takillya (Estyabon)
6 - Won't Find It Here
7 - She Deserves A Free Ride (Val's Song)
8 - House Of Doom
9 - Damage Is Done
10 - Layne
11 - Woman Don't Cry
12 - No Other
13 - Whiter Shade Of Pale
14 - Once More
15 - Fear




foobar2000 1.1.11 / Dynamic Range Meter 1.1.1
log date: 2012-06-19 04:08:21

--------------------------------------------------------------------------------
Analyzed: ? / ?
--------------------------------------------------------------------------------

DR         Peak         RMS     Duration Track
--------------------------------------------------------------------------------
DR6     -0.39 dB    -9.98 dB      3:33 ?-01 - Crazy Or High
DR6     -0.07 dB    -7.90 dB      4:15 ?-02 - Queen Of Sorrow
DR4     -0.07 dB    -6.13 dB      4:55 ?-03 - Steppin Stone
DR7     -0.95 dB   -10.23 dB      3:44 ?-04 - Yesterday, Today, Tomorrow
DR9     -3.30 dB   -16.66 dB      0:39 ?-05 - Takillya (Estyabon)
DR6     -0.57 dB    -8.71 dB      6:26 ?-06 - Won't Find It Here
DR9     -0.37 dB   -11.34 dB      4:20 ?-07 - She Deserves A Free Ride (Val's Song)
DR5     -0.07 dB    -7.21 dB      3:46 ?-08 - House Of Doom
DR6     -0.23 dB    -9.77 dB      5:20 ?-09 - Damage Is Done
DR6     -0.22 dB   -10.43 dB      5:16 ?-10 - Layne
DR6     -0.89 dB    -9.54 dB      5:39 ?-11 - Woman Don't Cry
DR7     -0.54 dB    -9.02 dB      4:59 ?-12 - No Other
DR8     -1.17 dB   -11.86 dB      5:08 ?-13 - Whiter Shade Of Pale
DR6     -0.07 dB    -8.18 dB      4:07 ?-14 - Once More
DR6     -1.26 dB    -9.40 dB      4:38 ?-15 - Fear
--------------------------------------------------------------------------------

Number of tracks:  15
Official DR value: DR6

Samplerate:        96000 Hz
Channels:          2
Bits per sample:   24
Bitrate:           4608 kbps
Codec:             PCM


Absolutely no thanks whatsoever to the Green Demon

enjoy :) 